<svg width="98" height="16" viewBox="0 0 98 16" fill="none" xmlns="http://www.w3.org/2000/svg">
<g clip-path="url(#clip0_2153_136)">
<path d="M18.3993 1.26067C16.0911 -0.25009 13.3207 -0.412455 10.9891 0.824635L10.9903 0.827428C9.97972 0.312406 8.84927 0.0152007 7.65121 0.0152007C3.43224 0.0152007 0 3.60041 0 8.00742C0 12.4144 3.43224 15.9996 7.65121 15.9996C8.82291 15.9996 9.94841 15.73 10.9948 15.1978L10.9933 15.1942C12.0615 15.71 13.2225 15.9629 14.3476 15.9629C17.8876 15.9629 21.7911 13.486 21.9985 8.02617C22.0462 5.29587 20.7007 2.76704 18.399 1.26107L18.3993 1.26067ZM7.65121 14.0054C4.48517 14.0054 1.90956 11.315 1.90956 8.00782C1.90956 6.21781 2.66803 4.6125 3.86265 3.51265C4.75212 3.57647 5.40672 3.89522 5.8547 4.48524C6.41344 5.22048 6.69605 6.40531 6.69681 8.04692C6.7942 10.6204 7.72492 12.5229 9.04824 13.8215C8.5953 13.94 8.12898 14.0054 7.65121 14.0054ZM14.3473 13.9683C11.6021 13.9683 8.76181 12.1128 8.60561 8.00782C8.60561 5.94454 8.18398 4.34243 7.35065 3.24576C7.0287 2.82169 6.65022 2.47622 6.21943 2.20654C6.6781 2.08287 7.15625 2.01026 7.65121 2.01026C10.8173 2.01026 13.3929 4.70067 13.3929 8.00782C13.3929 11.315 14.487 12.9849 15.7752 13.7935C15.3059 13.9084 14.8254 13.9683 14.3473 13.9683ZM18.2019 12.5094C16.7965 12.4396 15.3024 11.757 15.3024 8.00742C15.3024 5.71436 14.3679 3.64988 12.8822 2.19098C14.3644 1.7737 15.9834 2.0342 17.3854 2.95095C19.1139 4.08192 20.1248 5.96568 20.0897 7.96793C20.0114 10.0316 19.2674 11.5272 18.2019 12.5094Z" fill="white"/>
</g>
<path d="M35.532 12.5H33.684L32.916 10.244H29.616L28.86 12.5H27.18L30.24 3.5H32.472L35.532 12.5ZM31.272 5.336L30.12 8.756H32.424L31.272 5.336ZM37.2962 3.5H39.1802L41.4362 10.424L43.7042 3.5H45.4082L42.4322 12.5H40.2722L37.2962 3.5ZM54.6625 3.5V5.036H50.4745V7.04H54.2785V8.576H50.4745V10.952H54.7945V12.5H48.6265V3.5H54.6625ZM60.9792 3.5L64.1592 9.632V3.5H65.8152V12.5H63.7992L60.2472 5.672V12.5H58.5912V3.5H60.9792ZM76.0141 3.5V5.036H73.5421V12.5H71.7061V5.036H69.2341V3.5H76.0141ZM83.0467 3.5C83.6307 3.5 84.1587 3.58 84.6307 3.74C85.1027 3.892 85.4787 4.152 85.7587 4.52C86.0387 4.88 86.1787 5.376 86.1787 6.008C86.1787 6.456 86.0667 6.848 85.8427 7.184C85.6267 7.52 85.2907 7.784 84.8347 7.976C84.7947 7.992 84.7587 8.008 84.7267 8.024C84.9667 8.096 85.1787 8.192 85.3627 8.312C85.6587 8.496 85.8787 8.752 86.0227 9.08C86.1667 9.408 86.2387 9.824 86.2387 10.328V12.5H84.3907V10.352C84.3907 9.976 84.3467 9.684 84.2587 9.476C84.1707 9.26 84.0467 9.104 83.8867 9.008C83.7267 8.912 83.5347 8.852 83.3107 8.828C83.0947 8.804 82.8627 8.792 82.6147 8.792H81.2827V12.5H79.4347V3.5H83.0467ZM82.8907 7.316C83.4107 7.316 83.7827 7.228 84.0067 7.052C84.2387 6.876 84.3547 6.588 84.3547 6.188C84.3547 5.796 84.2387 5.508 84.0067 5.324C83.7827 5.132 83.4107 5.036 82.8907 5.036H81.2827V7.316H82.8907ZM97.6522 12.5H95.8042L95.0362 10.244H91.7362L90.9802 12.5H89.3002L92.3602 3.5H94.5922L97.6522 12.5ZM93.3922 5.336L92.2402 8.756H94.5442L93.3922 5.336Z" fill="white"/>
<defs>
<clipPath id="clip0_2153_136">
<rect width="22" height="16" fill="white"/>
</clipPath>
</defs>
</svg>
