<svg width="82" height="26" viewBox="0 0 82 26" fill="none" xmlns="http://www.w3.org/2000/svg">
<g clip-path="url(#clip0_2049_758)">
<path d="M16.6665 16.7764C15.0681 17.0352 13.7425 18.168 13.2079 19.7326L13.0006 20.3399L12.7936 19.7326C12.2591 18.168 10.9335 17.0352 9.33508 16.7764C7.73625 16.5177 6.13484 17.1767 5.15519 18.4964C4.51335 19.3608 4.27217 20.4656 4.49325 21.5275C4.71432 22.5893 5.37498 23.4971 6.30546 24.0181L7.43093 24.6478L8.66159 22.3424L7.5357 21.7122C7.16068 21.5025 7.04052 21.1631 7.00247 20.9792C6.96398 20.7953 6.93875 20.4354 7.19746 20.0864C7.61053 19.5298 8.2605 19.2614 8.93441 19.3718C9.60918 19.4808 10.1463 19.9401 10.3716 20.6L11.6656 24.3877C11.84 24.9859 12.3792 25.4053 13.0006 25.4053C13.6219 25.4053 14.1615 24.9859 14.336 24.3877L15.6299 20.6C15.8553 19.9401 16.3924 19.4808 17.0671 19.3718C17.7419 19.2632 18.391 19.5298 18.8263 20.1157C19.0773 20.4538 19.0521 20.8036 19.0149 20.9823C18.9777 21.1605 18.861 21.4907 18.503 21.6908L17.3425 22.3323L18.5608 24.6443L19.6901 24.0208C19.6901 24.0208 19.726 24.0006 19.7282 23.9993C20.6505 23.483 21.3052 22.5832 21.5245 21.5301C21.7439 20.477 21.5049 19.3818 20.8468 18.4956C19.8667 17.1758 18.2636 16.5168 16.6665 16.7756V16.7764Z" fill="#171717"/>
<path d="M23.4348 12.9363C23.4443 13.3615 23.224 13.6299 23.0919 13.7516C22.9593 13.8742 22.6814 14.0682 22.2277 14.013C21.5504 13.9246 21 13.4823 20.755 12.8294C20.5104 12.1765 20.6297 11.4702 21.0753 10.9408L23.632 7.89932C24.0502 7.44611 24.1353 6.75907 23.8248 6.20778C23.5144 5.65605 22.8914 5.38631 22.297 5.53125L18.4463 6.27784C17.7767 6.40745 17.1182 6.16093 16.6884 5.61708C16.2591 5.07366 16.1603 4.36429 16.4242 3.71929C16.5897 3.31557 16.9074 3.15793 17.0818 3.10013C17.2563 3.04277 17.6039 2.97884 17.9687 3.20653L19.0642 3.88963L20.3984 1.64592L19.3028 0.962389C18.3963 0.397959 17.2982 0.266594 16.2903 0.600698C15.2816 0.935678 14.4679 1.70197 14.0573 2.70341C13.4313 4.23205 13.6751 5.98183 14.6936 7.27052C15.7118 8.55877 17.3333 9.16786 18.9227 8.85915L19.5397 8.74005L19.1301 9.22741C18.0739 10.4833 17.7788 12.2252 18.3591 13.7722C18.9394 15.3197 20.2975 16.4109 21.9395 16.6246C22.0913 16.6447 22.2439 16.6543 22.3949 16.6543C23.2818 16.6543 24.1421 16.3194 24.8092 15.7033C25.5896 14.9825 26.0232 13.9517 25.9975 12.8386L24.7151 12.8688L23.4336 12.9367L23.4348 12.9363Z" fill="#171717"/>
<path d="M7.6407 13.7716C8.22096 12.2245 7.92591 10.4826 6.86972 9.22678L6.46006 8.73942L7.07711 8.85853C8.66995 9.16723 10.288 8.5577 11.3066 7.26945C12.3247 5.9812 12.5681 4.23143 11.945 2.71022C11.9442 2.7076 11.9292 2.67081 11.9283 2.66862C11.5217 1.67551 10.7152 0.91622 9.71504 0.584306C8.71571 0.252829 7.62659 0.382442 6.69782 0.961322L7.36446 2.08361L8.06232 3.18664C8.41638 2.96551 8.75377 3.02681 8.92396 3.0833C9.09329 3.13979 9.40202 3.29261 9.55938 3.67707C9.56024 3.67969 9.57521 3.71648 9.57606 3.71867C9.84032 4.36367 9.74155 5.07303 9.31223 5.61645C8.88291 6.1603 8.22695 6.40682 7.55432 6.27721L3.70369 5.53062C3.10845 5.38393 2.485 5.65542 2.17541 6.20759C1.86539 6.75888 1.95091 7.44548 2.36869 7.89869L4.92537 10.9402C5.37094 11.4701 5.49024 12.1759 5.24565 12.8288C5.00063 13.4817 4.4503 13.9239 3.73704 14.0172C3.32525 14.0693 3.04132 13.8736 2.90876 13.7514C2.77663 13.6297 2.55641 13.3608 2.56582 12.9356L2.59618 11.5852L0.0309414 11.5611L0.00100862 12.8748C-0.0237928 13.9511 0.409804 14.9819 1.19019 15.7026C1.85427 16.3157 2.70992 16.6506 3.61474 16.6506C3.77382 16.6506 3.9346 16.6406 4.09581 16.6191C5.70191 16.4102 7.06043 15.319 7.6407 13.7716Z" fill="#171717"/>
<path d="M8.76074 12.6421C8.76074 15.036 10.6623 16.9837 13.0001 16.9837C15.3378 16.9837 17.2398 15.036 17.2398 12.6421C17.2398 10.2482 15.3378 8.3009 13.0001 8.3009C10.6623 8.3009 8.76074 10.2482 8.76074 12.6421ZM13.0001 10.9282C13.9233 10.9282 14.6742 11.6971 14.6742 12.6421C14.6742 13.587 13.9233 14.3564 13.0001 14.3564C12.0769 14.3564 11.3264 13.5875 11.3264 12.6421C11.3264 11.6967 12.0773 10.9282 13.0001 10.9282Z" fill="#171717"/>
</g>
<path d="M41.056 6.90539V8.95339H35.68V11.8654H40.56V13.9294H35.68V18.9054H33.216V6.90539H41.056ZM44.8361 6.2494V18.9054H42.5001V6.2494H44.8361ZM50.4926 9.8174C51.3353 9.8174 52.0873 9.99873 52.7486 10.3614C53.4206 10.7134 53.954 11.2201 54.3486 11.8814C54.7433 12.5427 54.9406 13.3374 54.9406 14.2654V14.6014C54.9406 15.5081 54.7433 16.2974 54.3486 16.9694C53.9646 17.6307 53.4366 18.1481 52.7646 18.5214C52.0926 18.8947 51.3353 19.0814 50.4926 19.0814C49.6606 19.0814 48.9086 18.8947 48.2366 18.5214C47.5646 18.1481 47.0313 17.6307 46.6366 16.9694C46.242 16.2974 46.0446 15.5081 46.0446 14.6014V14.2654C46.0446 13.3374 46.242 12.5427 46.6366 11.8814C47.0313 11.2201 47.5646 10.7134 48.2366 10.3614C48.9086 9.99873 49.6606 9.8174 50.4926 9.8174ZM50.4926 11.6894C50.0766 11.6894 49.7086 11.7801 49.3886 11.9614C49.0793 12.1321 48.8393 12.4094 48.6686 12.7934C48.498 13.1667 48.4126 13.6521 48.4126 14.2494V14.6974C48.4126 15.2841 48.498 15.7694 48.6686 16.1534C48.8393 16.5267 49.0793 16.8094 49.3886 17.0014C49.7086 17.1827 50.0766 17.2734 50.4926 17.2734C50.9193 17.2734 51.2873 17.1827 51.5966 17.0014C51.906 16.8094 52.146 16.5267 52.3166 16.1534C52.4873 15.7694 52.5726 15.2841 52.5726 14.6974V14.2494C52.5726 13.6521 52.4873 13.1667 52.3166 12.7934C52.146 12.4094 51.906 12.1321 51.5966 11.9614C51.2873 11.7801 50.9193 11.6894 50.4926 11.6894ZM63.2811 18.9054L61.6971 13.0654L60.1131 18.9054H57.6331L55.1851 10.0094H57.5371L59.0731 16.0094L60.7371 10.0094H62.8491L64.4971 16.0094L66.0491 10.0094H68.1611L65.6971 18.9054H63.2811ZM77.0729 6.90539V8.95339H71.6969V11.8654H76.5769V13.9294H71.6969V18.9054H69.2329V6.90539H77.0729ZM80.853 10.0094V18.9054H78.517V10.0094H80.853ZM80.837 6.74539V8.7774H78.533V6.74539H80.837Z" fill="#171717"/>
<defs>
<clipPath id="clip0_2049_758">
<rect width="26" height="25" fill="white" transform="translate(0 0.405396)"/>
</clipPath>
</defs>
</svg>
