<svg width="88" height="18" viewBox="0 0 88 18" fill="none" xmlns="http://www.w3.org/2000/svg">
<g clip-path="url(#clip0_2153_8)">
<path d="M20.6261 0H18.8434C18.405 0 18.05 0.34771 18.05 0.775821V3.94019C18.05 4.94625 18.8839 5.76175 19.9128 5.76175H20.7206C22.364 5.76175 23.8381 6.89782 24.073 8.48862C24.3646 10.4631 22.7991 12.1636 20.8349 12.1636C19.2972 12.1636 18.0505 10.9445 18.0505 9.4409V7.91432C18.0505 6.90826 17.2165 6.09276 16.1877 6.09276H15.1834C13.3841 6.00609 11.9511 4.55625 11.9511 2.77542V0.851002C11.9511 0.422369 11.5955 0.0751805 11.1577 0.0751805H9.16674C4.0241 0.0751805 -0.142554 4.23674 0.00373803 9.29628C0.145225 14.1783 4.37915 18.0005 9.3739 18.0005H11.1566C11.595 18.0005 11.95 17.6533 11.95 17.2247V14.0603C11.95 13.0543 11.1161 12.2388 10.0872 12.2388H9.2794C7.63601 12.2388 6.16188 11.1027 5.92696 9.51191C5.63544 7.53737 7.20141 5.83693 9.16567 5.83693C10.7033 5.83693 11.95 7.05601 11.95 8.55962V10.0862C11.95 11.0923 12.784 11.9078 13.8128 11.9078H14.8171C16.6164 11.9944 18.0494 13.4443 18.0494 15.2251V17.149C18.0494 17.5776 18.405 17.9248 18.8428 17.9248H20.8338C25.9754 17.9248 30.1426 13.7633 29.9957 8.70371C29.8548 3.82168 25.6208 0 20.6261 0Z" fill="white"/>
</g>
<path d="M44.504 3V5.048H41.208V15H38.76V5.048H35.464V3H44.504ZM46.5028 12.168C46.6734 12.5413 46.9134 12.8293 47.2228 13.032C47.5428 13.2347 47.9321 13.336 48.3908 13.336C48.8921 13.336 49.2868 13.224 49.5748 13C49.8734 12.776 50.0708 12.4507 50.1668 12.024H52.4068C52.3001 12.7173 52.0654 13.2987 51.7028 13.768C51.3508 14.2267 50.8921 14.5787 50.3268 14.824C49.7721 15.0587 49.1268 15.176 48.3908 15.176C47.4734 15.176 46.6788 14.984 46.0068 14.6C45.3454 14.216 44.8334 13.6933 44.4708 13.032C44.1188 12.3707 43.9428 11.6187 43.9428 10.776V10.392C43.9428 9.464 44.1348 8.66933 44.5188 8.008C44.9134 7.336 45.4361 6.81867 46.0868 6.456C46.7481 6.09333 47.4734 5.912 48.2628 5.912C49.1161 5.912 49.8521 6.08267 50.4708 6.424C51.1001 6.76533 51.5854 7.26133 51.9268 7.912C52.2681 8.56267 52.4388 9.34133 52.4388 10.248V11.08H46.2628C46.2841 11.4853 46.3641 11.848 46.5028 12.168ZM46.3428 9.384H50.1188C50.0548 8.88267 49.8894 8.472 49.6228 8.152C49.3668 7.832 48.9134 7.672 48.2628 7.672C47.8894 7.672 47.5481 7.75733 47.2388 7.928C46.9401 8.09867 46.7054 8.38133 46.5348 8.776C46.4494 8.94667 46.3854 9.14933 46.3428 9.384ZM55.9693 2.344V15H53.6333V2.344H55.9693ZM59.7378 12.168C59.9084 12.5413 60.1484 12.8293 60.4578 13.032C60.7778 13.2347 61.1671 13.336 61.6258 13.336C62.1271 13.336 62.5218 13.224 62.8098 13C63.1084 12.776 63.3058 12.4507 63.4018 12.024H65.6418C65.5351 12.7173 65.3004 13.2987 64.9378 13.768C64.5858 14.2267 64.1271 14.5787 63.5618 14.824C63.0071 15.0587 62.3618 15.176 61.6258 15.176C60.7084 15.176 59.9138 14.984 59.2418 14.6C58.5804 14.216 58.0684 13.6933 57.7058 13.032C57.3538 12.3707 57.1778 11.6187 57.1778 10.776V10.392C57.1778 9.464 57.3698 8.66933 57.7538 8.008C58.1484 7.336 58.6711 6.81867 59.3218 6.456C59.9831 6.09333 60.7084 5.912 61.4978 5.912C62.3511 5.912 63.0871 6.08267 63.7058 6.424C64.3351 6.76533 64.8204 7.26133 65.1618 7.912C65.5031 8.56267 65.6738 9.34133 65.6738 10.248V11.08H59.4978C59.5191 11.4853 59.5991 11.848 59.7378 12.168ZM59.5778 9.384H63.3538C63.2898 8.88267 63.1244 8.472 62.8578 8.152C62.6018 7.832 62.1484 7.672 61.4978 7.672C61.1244 7.672 60.7831 7.75733 60.4738 7.928C60.1751 8.09867 59.9404 8.38133 59.7698 8.776C59.6844 8.94667 59.6204 9.14933 59.5778 9.384ZM68.8872 15L65.8952 6.104H68.2952L70.3752 12.456L72.4552 6.104H74.6952L71.6872 15H68.8872ZM77.8374 6.104V15H75.5014V6.104H77.8374ZM77.8214 2.84V4.872H75.5174V2.84H77.8214ZM83.6691 14.856C83.2211 15.08 82.6985 15.192 82.1011 15.192C81.4931 15.192 80.9545 15.096 80.4851 14.904C80.0265 14.7013 79.6638 14.408 79.3971 14.024C79.1411 13.64 79.0131 13.1653 79.0131 12.6C79.0131 12.0347 79.1358 11.576 79.3811 11.224C79.6265 10.8613 80.0105 10.568 80.5331 10.344C81.0558 10.1093 81.7225 9.90667 82.5331 9.736C83.0238 9.62933 83.4238 9.53333 83.7331 9.448C84.0531 9.36267 84.2878 9.26133 84.4371 9.144C84.5865 9.016 84.6611 8.85067 84.6611 8.648C84.6611 8.34933 84.5331 8.12533 84.2771 7.976C84.0211 7.82667 83.6585 7.752 83.1891 7.752C82.8478 7.752 82.5598 7.80533 82.3251 7.912C82.0905 8.01867 81.9145 8.168 81.7971 8.36C81.6798 8.54133 81.5998 8.76 81.5571 9.016H79.2371C79.3011 8.38667 79.4985 7.84267 79.8291 7.384C80.1598 6.91467 80.6131 6.552 81.1891 6.296C81.7651 6.04 82.4531 5.912 83.2531 5.912C84.1278 5.912 84.8371 6.03467 85.3811 6.28C85.9251 6.52533 86.3198 6.872 86.5651 7.32C86.8211 7.75733 86.9491 8.27467 86.9491 8.872V15H84.7251V13.96C84.4585 14.344 84.1065 14.6427 83.6691 14.856ZM84.6131 10.488C84.4745 10.616 84.2718 10.7387 84.0051 10.856C83.7385 10.9627 83.3811 11.08 82.9331 11.208C82.5171 11.3147 82.1918 11.4213 81.9571 11.528C81.7225 11.624 81.5571 11.7413 81.4611 11.88C81.3651 12.0187 81.3171 12.216 81.3171 12.472C81.3171 12.664 81.3705 12.8347 81.4771 12.984C81.5838 13.1227 81.7331 13.2347 81.9251 13.32C82.1278 13.3947 82.3731 13.432 82.6611 13.432C82.9385 13.432 83.1945 13.4053 83.4291 13.352C83.6745 13.2987 83.8825 13.2133 84.0531 13.096C84.2345 12.9787 84.3731 12.84 84.4691 12.68C84.5651 12.5093 84.6131 12.3173 84.6131 12.104V10.488Z" fill="white"/>
<defs>
<clipPath id="clip0_2153_8">
<rect width="30" height="18" fill="white"/>
</clipPath>
</defs>
</svg>
